<svg width="186" height="138" viewBox="0 0 186 138" fill="none" xmlns="http://www.w3.org/2000/svg">
<g id="Group 3">
<g id="Group 3_2">
<g id="Fill 1" filter="url(#filter0_b_3_41)">
<path d="M53.4437 138C52.3425 138 51.485 137.638 50.8949 136.924C50.3049 136.21 50.0057 135.272 50.0057 134.138V118.072H51.4583V134.079C51.4583 134.802 51.6028 135.403 51.8876 135.863C52.1732 136.322 52.6767 136.555 53.3843 136.555C54.0921 136.555 54.6005 136.332 54.8954 135.892C55.1904 135.452 55.34 134.852 55.34 134.109V118.072H56.7917V134.197C56.7917 135.313 56.5225 136.215 55.9916 136.879C55.4022 137.623 54.5449 138 53.4437 138ZM154.814 137.735H154.813L153.363 137.734V124.321H152.592L152.119 122.877H153.363C153.363 121.234 153.483 120.093 153.718 119.487C154.151 118.372 155.078 117.806 156.475 117.806C157.595 117.806 158.422 118.183 158.934 118.927C159.366 119.553 159.585 120.455 159.585 121.609V137.733L158.163 137.734V124.321H154.814V137.735ZM156.563 119.251C156.012 119.251 155.579 119.424 155.274 119.767C154.969 120.109 154.814 120.561 154.814 121.108V122.877H158.163V121.108C158.163 120.579 158.024 120.133 157.748 119.782C157.474 119.43 157.075 119.251 156.563 119.251ZM144.888 137.735H144.887L143.437 137.734V117.718L149.066 121.108V118.072H150.519V137.733L149.066 137.734V122.729L144.888 120.253V137.735ZM113.123 137.735L111.671 137.734V118.072H112.738C114.94 118.072 116.844 118.836 118.398 120.342C119.951 121.848 120.739 123.713 120.739 125.884C120.739 127.625 120.24 129.167 119.256 130.468C118.273 131.768 116.928 132.746 115.257 133.372L120.528 137.732L118.219 137.734L113.123 133.49V137.735ZM113.123 119.457V132.34C114.891 132.144 116.357 131.48 117.479 130.365C118.678 129.191 119.286 127.713 119.286 125.972C119.286 124.192 118.703 122.69 117.553 121.506C116.402 120.323 114.912 119.633 113.123 119.457ZM97.7138 137.735L96.2621 137.734V124.321H95.4917L95.0174 122.877H96.2621C96.2621 121.232 96.382 120.091 96.6176 119.487C97.0501 118.372 97.9773 117.806 99.3734 117.806C100.494 117.806 101.322 118.183 101.833 118.927C102.265 119.553 102.485 120.455 102.485 121.609V137.733L101.063 137.734V124.321H97.7138V137.735ZM99.4625 119.251C98.9122 119.251 98.4783 119.424 98.1728 119.767C97.8683 120.109 97.7138 120.56 97.7138 121.108V122.877H101.063V121.108C101.063 120.58 100.923 120.134 100.648 119.782C100.372 119.43 99.9736 119.251 99.4625 119.251ZM72.2897 137.735L70.838 137.734V124.321H70.0667L69.5933 122.877H70.838C70.838 121.232 70.958 120.091 71.1935 119.487C71.6261 118.372 72.5532 117.806 73.9493 117.806C75.0703 117.806 75.8975 118.183 76.4081 118.927C76.8411 119.553 77.0606 120.456 77.0606 121.609V137.733L75.6377 137.734V124.321H72.2897V137.735ZM74.0375 119.251C73.4869 119.251 73.0533 119.424 72.7487 119.767C72.4441 120.109 72.2897 120.56 72.2897 121.108V122.877H75.6377V121.108C75.6377 120.579 75.4981 120.133 75.2228 119.782C74.9483 119.43 74.5495 119.251 74.0375 119.251ZM61.0298 137.735L59.5772 137.734V118.072H60.6734C62.8558 118.072 64.7502 118.826 66.3038 120.312C67.8571 121.799 68.6447 123.664 68.6447 125.854C68.6447 127.615 68.1563 129.162 67.193 130.453C66.2289 131.744 64.8729 132.726 63.1628 133.372L68.4356 137.732L66.1265 137.734L61.0298 133.49V137.735ZM61.0298 119.457V132.34C62.7976 132.144 64.2632 131.48 65.3849 130.365C66.5847 129.19 67.193 127.712 67.193 125.972C67.193 124.192 66.6098 122.69 65.4596 121.506C64.3084 120.323 62.818 119.633 61.0298 119.457ZM42.4205 137.735L40.9688 137.734V124.321H40.1984L39.7241 122.877H40.9688C40.9688 121.232 41.0888 120.091 41.3243 119.487C41.7568 118.372 42.684 117.806 44.0801 117.806C45.201 117.806 46.0283 118.183 46.5389 118.927C46.9719 119.553 47.1914 120.456 47.1914 121.609V137.733L45.7685 137.734V124.321H42.4205V137.735ZM44.1683 119.251C43.6177 119.251 43.1841 119.424 42.8795 119.767C42.5749 120.109 42.4205 120.56 42.4205 121.108V122.877H45.7685V121.108C45.7685 120.579 45.6289 120.133 45.3536 119.782C45.0791 119.43 44.6803 119.251 44.1683 119.251ZM10.2104 137.735H10.2094L8.75871 137.734V118.072H9.82521C12.0268 118.072 13.9308 118.836 15.4844 120.342C17.0383 121.848 17.8262 123.713 17.8262 125.884C17.8262 127.625 17.3275 129.167 16.3439 130.468C15.361 131.769 14.0151 132.746 12.3434 133.372L17.6162 137.732L15.3071 137.734L10.2104 133.49V137.735ZM10.2104 119.457V132.34C11.9788 132.144 13.4447 131.48 14.5664 130.365C15.7656 129.191 16.3736 127.713 16.3736 125.972C16.3736 124.192 15.7904 122.69 14.6402 121.506C13.4901 120.323 11.9997 119.633 10.2104 119.457ZM89.0909 137.734V137.733V136.319C90.2905 135.967 91.1178 135.373 91.5506 134.551C91.9048 133.885 92.0843 132.853 92.0843 131.485V119.516H89.18V118.072H93.5063V131.927C93.5063 133.492 93.1672 134.772 92.4983 135.73C91.751 136.786 90.6049 137.461 89.0921 137.734L89.0909 137.734ZM134.25 137.734H132.799V118.072H134.102C135.065 118.072 135.878 118.355 136.517 118.912C137.156 119.47 137.48 120.238 137.48 121.197C137.48 121.608 137.396 121.995 137.228 122.346C137.06 122.699 136.806 123.036 136.472 123.349C138.047 123.818 139.318 124.697 140.251 125.958C141.185 127.219 141.658 128.691 141.658 130.335C141.658 132.369 140.935 134.13 139.51 135.568C138.085 137.005 136.315 137.734 134.25 137.734ZM134.25 124.38V136.261C135.924 136.26 137.353 135.69 138.503 134.565C139.653 133.44 140.236 132.017 140.236 130.335C140.236 128.594 139.663 127.151 138.532 126.046C137.402 124.94 135.961 124.38 134.25 124.38ZM134.25 119.398V122.965C134.799 122.926 135.239 122.753 135.554 122.45C135.868 122.147 136.028 121.725 136.028 121.197C136.028 120.668 135.858 120.232 135.525 119.9C135.191 119.567 134.762 119.398 134.25 119.398ZM127.168 137.734H125.746V124.204L121.657 118.072H123.405L126.487 122.759L129.451 118.072H131.198L127.168 124.204V137.733V137.734ZM88.9127 137.734C86.1801 137.734 83.8318 136.777 81.935 134.89C80.0371 133.002 79.0748 130.646 79.0748 127.888C79.0748 125.072 80.0271 122.707 81.9053 120.857C83.7832 119.009 86.1408 118.072 88.9127 118.072V119.487L88.9074 119.488C86.5708 119.488 84.5638 120.296 82.9421 121.89C81.3201 123.483 80.4977 125.501 80.4977 127.888C80.4977 130.275 81.3153 132.299 82.9277 133.902C84.5398 135.506 86.5535 136.319 88.9127 136.319V137.733V137.734ZM36.9971 137.734H35.5454V119.516H33.2045V118.072H39.3092V119.516H36.9971V137.733V137.734ZM27.782 137.734H26.2115V136.29L26.2378 136.289C27.9136 136.289 29.0512 136.19 29.6189 135.995C30.7793 135.604 31.3676 134.711 31.3676 133.342C31.3676 132.365 30.9837 131.155 30.2264 129.746C29.4551 128.311 28.7026 126.932 27.9899 125.648C27.1837 124.083 26.7749 122.784 26.7749 121.786C26.7749 120.553 27.1685 119.616 27.9449 119.001C28.7216 118.384 29.7635 118.072 31.0418 118.072H32.1083V119.487L32.0842 119.488C30.8583 119.488 30.0092 119.567 29.5604 119.722C28.6754 120.035 28.2266 120.7 28.2266 121.698C28.2266 122.715 28.6254 123.985 29.4119 125.471L30.5081 127.417L31.6043 129.362C32.4105 130.927 32.8193 132.266 32.8193 133.342C32.8193 134.75 32.3209 135.861 31.3379 136.643C30.4331 137.367 29.2368 137.734 27.782 137.734ZM25.145 137.734H25.144H20.078V124.351H19.3373L18.8036 122.907H20.078V118.072H25.145V119.516H21.5297V122.907H24.9668L25.5005 124.351H21.5297V136.29H25.145V137.733V137.734ZM64.7773 128.089C63.9224 128.089 63.4931 127.924 62.6894 127.289V126.896L62.7004 126.902C63.0627 127.081 63.4374 127.266 63.9836 127.39C64.2177 127.443 64.675 127.501 65.1258 127.501C65.1844 127.501 65.2427 127.5 65.3003 127.498C65.2315 127.703 65.1473 127.9 65.051 128.083C64.944 128.087 64.8573 128.089 64.7773 128.089ZM168.546 126.647C167.474 126.183 166.958 125.119 167.168 123.801C165.046 122.68 164.717 122.012 164.335 119.863C163.144 119.404 161.689 117.282 160.442 114.189C159.286 111.319 158.663 108.428 158.892 106.994C152.326 105.936 148.783 100.296 145.356 94.8415C143.795 92.3563 142.32 90.0089 140.602 88.1577C141.018 87.9886 141.883 87.64 142.77 87.3207C146.102 89.0791 154.441 90.6804 160.266 90.6804C161.534 90.6804 162.627 90.605 163.515 90.4563C163.7 90.0815 163.779 89.7397 163.795 89.2377C164.108 89.2422 164.419 89.2435 164.72 89.2449L164.725 89.2449L164.731 89.2449C165.032 89.2462 165.342 89.2476 165.654 89.2521C165.232 90.1938 164.446 90.8938 163.318 91.334C162.321 91.7233 161.026 91.9207 159.469 91.9208C155.574 91.921 150.749 90.7177 147.226 89.8391C145.988 89.5304 144.919 89.2638 144.116 89.1063C145.36 90.7749 146.441 92.5181 147.486 94.204C149.479 97.4183 151.54 100.741 154.771 103.576C154.773 103.397 154.801 103.22 154.833 103.016L154.836 102.995C156.19 104.763 157.075 104.967 158.541 105.305C159.108 105.436 159.75 105.584 160.536 105.851C160.479 111.491 163.24 115.705 165.91 119.781C166.975 121.406 167.981 122.942 168.822 124.566C168.898 124.565 168.959 124.511 169.019 124.458L169.043 124.437C169.21 121.313 171.868 105.518 174.284 92.243C176.741 78.7443 179.679 63.8001 180.556 62.3403C181.221 62.3653 181.805 62.4934 182.37 62.6172C182.984 62.752 183.62 62.8913 184.347 62.8913L184.391 62.8911C184.564 61.8083 184.332 60.8561 183.72 60.1382C182.964 59.2518 181.633 58.7435 180.068 58.7435C179.928 58.7435 179.784 58.7475 179.641 58.7556C179.826 56.105 179.639 53.3397 179.085 50.5356C180.582 53.4803 181.284 55.6659 181.232 57.2166C182.712 57.3282 183.873 58.0933 184.845 58.8015C186.162 59.8966 186.176 61.5461 185.75 62.7246C185.281 64.0225 184.28 64.8945 183.26 64.8946C182.617 64.8946 181.982 64.5519 181.423 63.9036C180.343 66.3126 180.362 69.9652 180.382 73.8322C180.397 76.8366 180.413 79.9428 179.94 82.8077C179.402 86.0628 178.296 88.472 176.56 90.1728C177.162 92.6228 176.556 100.146 175.086 108.468C174.356 112.601 173.507 116.367 172.631 119.358C171.633 122.763 170.664 124.969 169.751 125.916C169.675 125.917 169.596 125.936 169.526 125.953C169.489 125.962 169.456 125.97 169.427 125.975L169.091 126.459C168.886 126.489 168.729 126.562 168.546 126.647ZM66.4784 117.902C66.3529 117.902 66.2303 117.852 66.1139 117.752L65.9087 117.575C64.4804 116.352 63.2826 114.685 62.2466 112.477L62.1053 112.177C61.4734 110.836 60.5186 108.81 60.2801 107.639C60.2007 107.25 60.0627 106.733 59.9029 106.135C59.1955 103.487 58.1264 99.486 59.8301 98.2638L60.1109 98.0631C60.3229 97.9106 60.5961 97.8364 60.9462 97.8364C61.2272 97.8364 61.5169 97.8823 61.8137 97.9335L61.8692 97.943C62.1309 97.9879 62.3778 98.0303 62.5821 98.0303C62.6034 98.0303 62.6241 98.0298 62.6444 98.0289C62.4252 97.5241 61.259 94.933 59.7374 93.6288L59.0156 93.0114C58.2386 92.3453 57.3034 92.2055 56.6558 92.2055C55.7096 92.2055 54.7569 92.4996 54.0422 93.0123C49.898 95.985 49.938 101.618 50.3306 104.711C50.626 107.04 51.0627 108.703 51.7652 110.956C52.1235 112.108 52.4556 113.082 52.9118 114.088C53.0136 114.312 53.1838 114.642 53.3808 115.024C53.6136 115.476 53.8774 115.988 54.0755 116.42H53.7659C52.5985 114.512 51.0453 110.452 50.6393 109.139C49.7056 106.116 49.2222 103.97 49.3415 101.29C49.4653 98.5336 50.5433 95.769 52.2251 93.8943C53.2066 92.7997 54.6961 91.4949 56.2179 91.4949C56.3071 91.4949 56.3966 91.4995 56.4839 91.5084C57.296 91.5912 60.5858 93.3277 61.4204 94.0419C61.6041 94.1995 62.2181 95.0696 64.0995 98.3201L64.1591 98.4231C64.6082 99.1969 64.9759 99.9839 65.3316 100.745C65.6596 101.447 65.9693 102.11 66.3308 102.745C66.7143 103.419 67.4848 105.33 68.2299 107.179C69.0254 109.152 69.7767 111.016 69.9992 111.235C70.3193 109.582 69.3431 107.702 68.399 105.884C67.8706 104.866 67.3715 103.904 67.0841 102.981C66.9718 102.618 66.8472 102.272 66.7268 101.937C66.6064 101.603 66.4826 101.259 66.3704 100.898C66.1867 100.307 66.2496 99.8927 66.305 99.5272C66.34 99.2965 66.3702 99.0974 66.3326 98.8911C66.2836 98.6231 64.2615 96.0637 63.3981 94.9707L63.3913 94.9622C63.2662 94.8038 63.17 94.682 63.1142 94.6107L63.3005 94.4766C63.5383 94.6539 63.7038 94.7322 63.8638 94.8078C64.0545 94.898 64.2345 94.9831 64.5173 95.2254L65.0321 95.6673C66.2872 96.7414 67.701 99.217 68.1452 100.243C68.1938 100.226 69.8068 100.109 71.5146 99.9859L71.5207 99.9855L71.5305 99.9847C73.0881 99.8723 74.6988 99.756 75.1337 99.7137C77.6251 99.4715 79.6333 99.165 81.9998 98.7894C84.4791 98.3957 86.5305 98.0092 88.8479 97.5501C89.0037 97.5194 89.3071 97.4538 89.6911 97.3707L89.7003 97.3687C91.3705 97.0073 94.4786 96.3348 95.4487 96.3348C95.5688 96.3348 95.6526 96.3455 95.6978 96.3666C94.8622 96.6972 92.9691 97.0621 91.299 97.3841C90.3514 97.5668 89.4573 97.7392 88.8677 97.884C87.4113 98.2428 85.6978 98.5372 84.0408 98.822C83.3654 98.938 82.7274 99.0477 82.1204 99.1593C80.2041 99.5115 78.205 99.7548 76.2718 99.99C75.9327 100.031 75.5941 100.072 75.2561 100.114C74.9358 100.153 74.1601 100.219 73.2618 100.294C71.3442 100.455 68.718 100.676 68.4737 100.818C69.2225 101.775 70.805 107.222 71.0216 108.417C71.1131 108.92 71.2559 109.446 71.3941 109.955C71.5893 110.674 71.7911 111.417 71.8604 112.131C71.9412 112.963 72.1968 115.045 72.4301 115.815L73.7279 114.722C73.7203 114.99 73.4899 115.46 73.3217 115.802C73.2905 115.866 73.2613 115.926 73.2356 115.979C73.2015 116.051 73.1717 116.125 73.1447 116.206C72.1493 116.339 71.3183 116.716 70.6742 117.327C70.5818 115.469 70.2178 113.122 69.4682 112.103C69.4248 112.329 69.4701 112.554 69.5138 112.771C69.605 113.225 69.6993 113.694 69.0146 114.213L68.0705 113.266C67.9483 113.438 67.9463 114.106 67.9443 114.752C67.9428 115.234 67.9415 115.689 67.8932 115.941C67.8186 116.329 67.1822 117.902 66.4784 117.902ZM60.9893 98.0802C60.4732 98.7327 59.6676 102.418 60.326 103.097C59.8394 103.524 60.3848 105.623 60.5901 106.413L60.6176 106.519C60.8806 107.546 61.1899 108.338 61.5481 109.254C61.6461 109.505 61.7475 109.765 61.8542 110.045C62.7521 112.402 64.1764 114.804 66.2084 117.387L67.1399 116.293L67.1372 114.709L66.9959 114.688L66.6233 114.955C66.5858 114.982 66.5414 114.996 66.4911 114.996C65.7499 114.996 63.8088 112.027 63.5876 111.62C63.4212 111.315 63.2609 111.091 63.1059 110.875C62.8864 110.568 62.6791 110.279 62.4941 109.806C62.3419 109.414 61.8506 108.246 61.676 107.945C60.7193 106.292 60.5199 102.391 62.0963 101.061L62.0657 101.258L63.5759 101.399L62.3222 100.692C62.7795 100.346 63.0314 100.156 63.0377 99.9436C63.0451 99.693 62.7138 99.41 61.9879 98.7901L61.8029 98.6319C61.6025 98.459 61.4785 98.3876 61.3473 98.312C61.245 98.2531 61.1396 98.1923 60.9893 98.0802ZM63.1817 109.803C63.2818 110.478 64.8275 113.417 65.7989 114.25L66.2102 114.602C66.627 114.287 66.9179 113.464 66.9871 112.4C67.0615 111.257 66.8616 110.21 66.5009 109.855C66.4729 110.06 66.5179 110.366 66.57 110.72C66.679 111.462 66.8147 112.385 66.2912 112.761C66.2327 112.803 66.153 112.824 66.0542 112.824C65.715 112.824 65.212 112.571 65.0006 112.389C64.5339 111.99 64.2432 111.464 63.9621 110.954C63.724 110.523 63.4992 110.116 63.1817 109.803ZM65.2355 108.33L64.5614 108.724L63.5066 108.76L63.5586 108.88C63.9992 109.898 64.4153 110.861 65.7566 112.009C65.9418 111.049 65.7136 109.433 65.2355 108.33ZM62.9381 102.959C62.9224 102.959 62.9066 102.961 62.891 102.965C62.6434 103.029 62.4908 104.236 62.5139 104.566C62.5619 105.257 62.6099 105.63 62.8685 106.301C63.0398 106.744 63.2618 107.054 63.4765 107.353C63.6416 107.583 63.812 107.82 63.9539 108.113C64.2723 107.885 64.4595 107.595 64.5088 107.251C64.5936 106.658 64.2758 105.897 63.5642 104.989L64.124 104.587C63.8928 104.381 63.7008 104.017 63.5313 103.696C63.3231 103.3 63.1433 102.959 62.9381 102.959ZM76.4027 115.397L76.4016 115.396L75.9095 115.096L75.3497 113.427L74.6513 113.898L74.5478 113.81L80.0675 109.284L82.7342 107.45C85.99 105.113 90.0906 102.601 94.5926 100.183C94.7426 100.418 94.9997 100.558 95.2815 100.558C95.3629 100.558 95.4442 100.546 95.5232 100.523C95.6117 100.557 95.7003 100.573 95.7946 100.573C95.9372 100.573 96.0746 100.536 96.2144 100.494L96.0398 100.4C96.1835 100.473 96.3663 100.502 96.5096 100.518L96.5504 100.54C96.5839 100.558 96.617 100.576 96.6509 100.592C95.3577 101.282 94.4586 101.81 93.8213 102.257C92.9264 102.884 91.6776 103.486 90.4698 104.068C89.5436 104.515 88.586 104.976 87.7787 105.452C87.0489 105.882 86.3009 106.257 85.509 106.655C84.2642 107.279 82.977 107.925 81.746 108.808L80.0657 110.013C79.1172 110.694 78.0713 111.785 77.5223 112.666C76.9541 113.579 76.8335 113.988 76.6508 114.606C76.5849 114.83 76.5103 115.083 76.4031 115.396L76.4027 115.397ZM2.78866 101.515C2.15828 101.515 1.27371 101.15 0.685709 100.646L0.170914 100.205C-0.279859 99.8183 0.279414 97.6298 0.494005 97.2333C0.962436 96.3658 1.8316 95.1217 2.7395 94.4703L3.86 93.6666C7.72523 90.8938 15.1952 89.4775 21.1974 88.3394C23.1542 87.9684 25.0008 87.6182 26.4761 87.2649C26.7014 87.211 49.02 81.8614 49.2425 81.7011L49.5224 81.4995C49.5553 81.5138 49.6106 81.5211 49.6878 81.5211C50.5348 81.5211 53.8781 80.6348 55.4849 80.2089C55.8829 80.1034 56.1972 80.02 56.3525 79.9821C59.0526 79.324 61.1577 78.8371 63.1781 78.4035C63.5058 78.3332 64.2145 78.1697 65.1117 77.9627C68.72 77.1302 75.4303 75.582 76.7558 75.582C76.8489 75.582 76.9142 75.5899 76.9499 75.6054C77.5025 75.2093 79.8949 74.8451 82.0056 74.5238C83.3134 74.3247 84.5487 74.1366 85.1372 73.9701C86.1268 73.6902 87.2526 73.4573 88.4446 73.2107C90.1351 72.861 91.8819 72.4996 93.3029 71.9811C95.1188 71.318 104.566 69.1073 108.351 69.1073C109.115 69.1073 109.608 69.1975 109.816 69.3756C109.941 69.4823 110.002 69.6019 109.998 69.7309C109.992 69.9386 109.821 70.1703 109.491 70.4196C110.022 70.7286 110.589 70.8672 111.331 70.8672C111.646 70.8672 111.963 70.8428 112.27 70.8191C112.455 70.8049 112.645 70.7903 112.829 70.7814C112.614 70.6209 112.406 70.5064 112.223 70.4053C111.792 70.1683 111.453 69.9812 111.247 69.3765C111.089 68.911 111.503 68.166 111.964 67.8357L112.243 67.6341C112.622 67.3628 113.092 67.2134 113.566 67.2134C114.063 67.2134 114.517 67.3775 114.88 67.6881L114.982 67.7763C115.319 68.0646 115.429 68.2627 115.526 68.4375C115.614 68.5962 115.697 68.7459 115.936 68.9337L118.782 69.2667C117.626 70.0962 116 70.4783 114.693 70.7853C114.419 70.8498 114.16 70.9106 113.914 70.9731C113.053 71.1917 112.361 71.2891 111.67 71.2891C111.288 71.2891 110.941 71.2604 110.574 71.23L110.504 71.2242C110.151 71.1954 109.712 71.1597 109.187 71.1597C109.062 71.1597 108.934 71.1617 108.808 71.1657L103.893 76.0572L104.099 76.2336L103.726 76.5009C103.813 76.5209 103.927 76.5319 104.062 76.5319C105.069 76.5319 107.163 75.9526 109.586 75.2818C109.987 75.171 110.391 75.0592 110.799 74.9475C113.6 74.1816 116.765 73.3645 118.882 73.3645C119.367 73.3645 119.783 73.409 120.118 73.4967C119.426 73.9015 115.681 74.5925 113.203 75.0498C112.371 75.2031 111.653 75.3356 111.265 75.4182C106.795 76.3688 103.921 77.3344 102.477 78.3702L101.873 78.7437L101.002 79.7526L100.59 79.3989L100.434 79.3413L101 78.1326L100.793 77.9562C100.416 78.0918 99.9868 78.1449 99.5328 78.201C98.6453 78.3109 97.6394 78.4353 96.5789 79.1964L95.696 79.7661L93.3317 81.8505C93.0239 81.3507 93.3782 81.0343 93.7533 80.6992C94.0468 80.4371 94.3503 80.1661 94.3487 79.7904L94.0112 80.2278C93.9874 80.229 93.9597 80.2312 93.9294 80.2337C93.8685 80.2387 93.8009 80.2442 93.7321 80.2442C93.5861 80.2442 93.4846 80.2179 93.4217 80.1639C93.2549 80.0213 93.255 79.9894 93.2551 79.9367C93.2552 79.8819 93.2554 79.807 93.0851 79.5726L82.4858 81.5238L82.8593 81.2556L92.6774 79.2297C92.8569 78.7889 93.0949 78.384 93.3251 77.9925C93.6544 77.4322 93.9949 76.8529 94.1687 76.1598C94.2025 76.0255 94.2658 75.8251 94.3391 75.5931C94.6099 74.7364 95.0179 73.4456 94.7348 73.0611C93.7364 73.6446 92.3446 73.972 90.9985 74.2886C90.2708 74.4598 89.5837 74.6215 88.9928 74.8161C86.9319 75.4964 85.0825 76.0213 83.339 76.4208C82.4833 76.6171 81.6457 76.8266 80.8357 77.0293C79.815 77.2845 78.7596 77.5485 77.6708 77.7852C77.2028 77.8868 76.7389 77.984 76.2903 78.0779C74.8331 78.3832 73.4567 78.6715 71.9981 79.092C70.6926 79.4679 67.8359 80.0102 66.3164 80.2584C64.8953 80.4918 61.8795 81.0389 60.6374 81.4392C59.8116 81.7053 49.831 83.63 49.2765 83.6301C49.2722 83.6301 49.2684 83.63 49.265 83.6298L58.94 81.261L58.8617 81.1233C58.8299 81.1216 58.7928 81.1206 58.7491 81.1206C57.9466 81.1206 55.3236 81.4796 47.3849 83.1897C46.6416 83.3495 45.7722 83.605 44.9314 83.8522C43.8163 84.18 42.6632 84.519 41.7221 84.6639C40.5131 84.8484 37.1553 85.6982 36.0611 86.1318L48.9446 83.6181C48.5991 83.9302 39.2557 85.9389 38.0114 86.1345C37.0797 86.2806 36.0543 86.5804 35.0626 86.8702C34.1693 87.1314 33.3262 87.3778 32.5394 87.5241C31.3591 87.7443 30.2009 88.0555 29.0809 88.3564C28.4238 88.5329 27.7444 88.7155 27.0647 88.8786C20.9086 90.3575 13.578 92.7724 5.27662 96.0561L5.43141 96.0948L5.24782 97.146L5.354 97.2981C5.64871 97.0983 7.46655 96.136 7.901 95.922C8.08937 95.8294 8.25894 95.7344 8.42294 95.6425C8.8401 95.4087 9.1991 95.2075 9.60337 95.2075C9.85896 95.2075 10.1223 95.2884 10.4084 95.4549C10.2398 95.6022 10.2097 95.6619 10.1832 95.7146C10.155 95.7708 10.1326 95.8151 9.95121 95.9454C8.88175 96.7125 7.78494 97.1441 6.62371 97.601C5.27264 98.1326 3.87573 98.6823 2.29312 99.8181C3.51575 100.242 4.5956 100.44 5.69114 100.44C6.89975 100.44 7.97344 100.2 9.21666 99.9228C9.99316 99.7497 10.796 99.5706 11.7278 99.4275C12.5862 99.2952 13.4307 99.0798 14.2475 98.8715C14.9576 98.6904 15.6911 98.5033 16.4402 98.3682C17.49 98.1797 19.0846 97.7913 21.0518 97.245C22.3533 96.8828 23.7138 96.5183 25.0295 96.1658C26.7893 95.6943 28.6068 95.2074 30.3533 94.7079C31.4429 94.3965 32.5227 94.063 33.5668 93.7405C35.5977 93.1134 37.5159 92.521 39.5504 92.0592C40.6713 91.805 41.9511 91.4013 43.3061 90.9739C45.2504 90.3605 47.2597 89.7267 48.8528 89.5338C49.4586 89.4604 50.7308 89.1036 51.8532 88.7887C52.4761 88.6139 53.0642 88.449 53.4599 88.3548C53.8457 88.2637 54.2578 88.1707 54.6941 88.0722C55.904 87.799 57.1551 87.5166 58.0706 87.2271C59.9105 86.6437 75.5168 82.8149 76.5997 82.8149C76.6063 82.8149 76.6123 82.815 76.6178 82.8153C76.0966 83.1201 72.2151 84.0025 70.3498 84.4265L70.3359 84.4297C69.9812 84.5103 69.6954 84.5753 69.5132 84.618C69.0027 84.7383 68.4768 84.8601 67.9433 84.9837L67.9219 84.9886C66.0165 85.4298 64.0465 85.886 62.3096 86.3793C61.7957 86.5253 60.6373 86.8304 59.1708 87.2168C54.9087 88.3395 48.4739 90.0346 47.933 90.423C47.1857 90.4597 45.6849 90.9144 44.3608 91.3155C43.5993 91.5462 42.8805 91.7639 42.3674 91.8846C41.1436 92.1708 39.8666 92.548 38.6315 92.9128C37.9629 93.1104 37.3313 93.2969 36.7118 93.4686C35.1588 93.9002 33.6244 94.319 32.1406 94.724L32.1328 94.7261C29.9524 95.3213 27.6978 95.9367 25.3988 96.5889C21.5486 97.6825 17.3204 98.6726 14.0669 99.4131C13.0736 99.639 12.1197 99.878 11.1973 100.109C10.2931 100.336 9.35814 100.57 8.39871 100.788C7.4105 101.013 6.38887 101.22 5.61119 101.22L5.59791 101.22C5.01935 101.219 4.4451 101.107 3.93846 101.009C3.50575 100.925 3.09762 100.845 2.75005 100.845C2.72432 100.845 2.69891 100.846 2.6738 100.847L3.17421 101.456C3.06316 101.496 2.9336 101.515 2.78866 101.515ZM3.29663 97.1523L3.24232 97.2203L3.2338 97.2309C2.94044 97.5967 2.74664 97.8383 3.07432 98.2836L3.4478 98.0163C3.53691 97.9525 3.58841 97.8757 3.60089 97.7881C3.6286 97.5936 3.46579 97.3674 3.29663 97.1523ZM18.5017 89.7093C17.3885 89.7095 15.1827 90.4313 13.5721 90.9584C13.0996 91.113 12.6925 91.2462 12.3947 91.3338C11.364 91.6364 6.7331 93.1619 6.00112 93.5901L6.4718 94.4037C6.94728 94.2125 7.4158 93.9602 7.91185 93.6931C8.4398 93.4088 8.98544 93.115 9.56512 92.8845L9.94078 92.7346C10.8821 92.3587 11.6948 92.0341 12.6143 91.7451C13.1419 91.5792 13.6146 91.4053 14.0716 91.2371C14.6275 91.0327 15.1505 90.8403 15.7652 90.6597C16.0208 90.5843 16.3157 90.5027 16.6278 90.4163C17.3861 90.2067 18.2443 89.9693 18.8288 89.7381C18.7408 89.7197 18.6307 89.7093 18.5017 89.7093ZM88.3473 74.0661C87.7492 74.0662 80.706 75.5449 74.3826 76.936C68.3245 78.2688 61.0696 79.9306 60.5609 80.2278C60.6013 80.2298 60.6481 80.2315 60.7123 80.2315C62.833 80.2315 72.1754 78.3352 74.4443 77.6664C76.8414 76.9591 79.5371 76.327 81.3563 75.9132C81.4193 75.8989 87.6721 74.4693 88.361 74.0664C88.3568 74.0662 88.3525 74.0661 88.3473 74.0661ZM102.197 73.8693L98.4338 76.0824L97.5932 76.6845C96.9315 77.1596 96.7703 77.4992 96.5996 77.8587C96.5091 78.0492 96.4157 78.246 96.2414 78.4656C96.2834 78.4677 96.3311 78.4694 96.3911 78.4694C97.5412 78.4694 99.8194 77.8439 100.839 77.1138C101.545 76.6066 102.223 75.5447 102.35 74.7466C102.407 74.3812 102.356 74.086 102.197 73.8693ZM98.4815 72.1557L97.7345 72.6921C97.0611 73.1761 95.3721 76.3595 95.3603 76.8285C95.3997 76.8002 95.4383 76.7731 95.4757 76.7467C95.8514 76.4822 96.0996 76.3074 95.8904 75.9609L96.2639 75.6936C96.7097 75.3737 97.0982 74.6432 97.4739 73.9366C97.7983 73.3268 98.1045 72.751 98.4077 72.5337L98.6885 72.3339L98.4815 72.1557ZM105.306 72.1242L104.269 72.7056C103.306 73.3971 102.862 75.4056 102.838 76.3272C103.707 75.6684 105.287 72.8632 105.306 72.1242ZM102.32 71.3355C101.592 71.3355 100.934 71.5317 100.417 71.9028C99.2561 72.7366 97.4923 75.4909 97.4717 76.2867C97.5748 76.2126 97.6831 76.1344 97.7956 76.0531C98.703 75.3976 99.9411 74.5031 100.845 74.0925C101.901 73.6128 102.318 73.0501 102.721 72.5059C102.934 72.2171 103.136 71.9445 103.426 71.6904L103.941 72.1305L104.314 71.8632C103.732 71.5235 103.023 71.3355 102.32 71.3355ZM96.1937 72.9882C96.0635 73.1518 94.9322 74.6072 95.2505 75.3831L96.1091 73.962L96.1937 72.9882ZM104.977 70.6488C104.369 70.6488 103.809 70.7895 103.477 71.0253L105.691 71.5887L105.709 71.7246L106.337 70.9416C106 70.756 105.505 70.6488 104.977 70.6488ZM106.813 70.4952L106.814 70.4959L107.15 71.6436L108.123 70.7211L107.835 70.4718C107.679 70.3374 107.503 70.2692 107.313 70.2692C107.109 70.2692 106.892 70.3465 106.668 70.4988L106.813 70.4952ZM100.972 70.3413L100.844 70.947L101.051 71.1243C101.22 71.0579 101.338 71.0378 101.442 71.0201C101.592 70.9945 101.711 70.9743 101.911 70.8309L102.284 70.5645C102.38 70.495 102.428 70.433 102.436 70.3696C102.442 70.3137 102.417 70.2538 102.358 70.1865L101.043 70.4466L100.972 70.3413ZM113.239 67.7664C113.061 67.7664 112.92 67.7971 112.842 67.8528L112.562 68.0544C112.327 68.2223 112.179 68.5232 112.164 68.8592C112.148 69.2374 112.298 69.5906 112.576 69.8283L112.782 70.0047C112.932 70.1339 113.137 70.1995 113.389 70.1995C113.673 70.1995 114.015 70.1187 114.435 69.9525C114.341 69.8976 114.273 69.8645 114.214 69.8354C114.097 69.778 114.012 69.7365 113.827 69.5781L113.312 69.1371C113.364 69.0713 113.394 69.0226 113.42 68.9796C113.472 68.8951 113.509 68.8344 113.676 68.715L114.33 68.2461L114.02 67.9806C113.856 67.84 113.503 67.7664 113.239 67.7664ZM84.1058 96.5754L83.3345 95.6601C84.2762 95.2876 88.0443 94.6999 88.4708 94.6341C89.601 94.4589 92.5433 93.78 93.5621 93.3939C94.2169 93.1462 95.2673 92.8925 96.3794 92.6239C97.1706 92.4328 97.9872 92.2356 98.6462 92.0412C99.5205 91.7831 100.34 91.5501 101.208 91.3033L101.213 91.3018L101.221 91.2995C101.994 91.0798 102.793 90.8526 103.629 90.6075C103.924 90.521 104.193 90.4383 104.454 90.3584C105.023 90.1839 105.56 90.0191 106.215 89.8605C106.682 89.747 107.087 89.5948 107.478 89.4476C107.879 89.297 108.257 89.1548 108.699 89.0487C109.532 88.8494 110.351 88.5799 111.143 88.3192C111.97 88.0469 112.825 87.7658 113.679 87.5709C114.573 87.3662 123.376 84.8937 123.738 84.681C123.488 84.5349 123.195 84.4266 122.886 84.3119C122.385 84.1262 121.817 83.9158 121.324 83.4939L121.015 83.2302C119.003 81.5061 119.623 78.5487 119.955 76.9599L119.974 76.8735C120.115 76.1942 121.366 70.9793 121.514 70.8741C122.263 70.3368 125.455 69.6513 128.542 68.9883C131.103 68.4382 133.75 67.8697 134.951 67.3947C134.937 67.4805 134.902 67.5612 134.868 67.6393C134.775 67.8517 134.688 68.0521 135.009 68.3262C135.269 68.5493 135.827 68.7378 136.229 68.7378C136.389 68.7378 136.51 68.7089 136.589 68.652L136.776 68.5179C137.073 68.3044 137.244 68.0724 137.283 67.8283C137.316 67.6147 137.249 67.3913 137.082 67.1643L135.795 67.3191L135.624 67.2372L135.904 67.0365C136.242 66.8379 136.588 66.7073 136.953 66.5691C137.429 66.3892 137.921 66.2032 138.463 65.8458C138.999 65.4925 139.483 65.4632 139.973 65.4632C140.052 65.4632 140.131 65.4641 140.213 65.4651C140.291 65.4659 140.37 65.4667 140.451 65.4667C140.615 65.4667 140.833 65.4638 141.07 65.4417C142.778 65.278 143.95 64.998 145.572 64.6105L145.581 64.6084C145.773 64.5624 145.972 64.515 146.178 64.4661C146.505 64.3888 146.88 64.2921 147.277 64.1897C148.924 63.7648 151.18 63.1828 153.163 63.1828C154.661 63.1828 155.816 63.5213 156.595 64.1889L157.008 64.5426C157.697 65.1331 157.92 65.7439 158.099 66.2348C158.198 66.5052 158.283 66.7387 158.424 66.9312C159.218 66.3614 160.39 66.0213 161.557 66.0213C162.724 66.0213 163.759 66.3579 164.473 66.969L164.988 67.4109C165.544 67.8866 165.83 68.6123 165.794 69.4542C165.746 70.5555 165.166 71.6614 164.316 72.2718L164.222 72.3384C163.104 73.1408 161.402 73.4277 159.757 73.7052C158.287 73.953 156.899 74.1871 156.084 74.772C155.083 75.4901 154.485 76.4499 153.852 77.466C153.2 78.512 152.527 79.5936 151.366 80.4267C148.903 82.1927 142.768 84.1247 140.03 84.7665C139.431 84.9068 136.76 85.6241 134.178 86.3178C131.412 87.0607 128.799 87.7625 128.71 87.7626L131.358 86.6457L131.252 83.7999L131.095 83.7819C130.792 83.9584 127.711 84.5729 126.055 84.9031L126.044 84.9054C125.627 84.9884 125.298 85.0541 125.13 85.0896C124.609 85.2001 124.102 85.3389 123.613 85.4731C123.112 85.6101 122.641 85.7392 122.153 85.842C121.69 85.9398 121.227 86.0954 120.779 86.2459C120.286 86.4114 119.777 86.5824 119.28 86.6709C117.507 86.9835 115.205 87.6742 113.525 88.1785L113.426 88.2081C113.097 88.3069 112.725 88.4224 112.33 88.5446C110.779 89.0251 108.85 89.6231 107.579 89.8434C106.889 89.9627 102.284 91.329 101.642 91.6047C100.768 91.982 96.9517 93.0597 95.8013 93.3237C94.6361 93.5913 93.4804 93.9348 92.3627 94.267C91.5752 94.501 90.7621 94.7427 89.954 94.9554C89.7943 94.9971 89.5247 95.0649 89.1834 95.1509C87.5637 95.5587 84.548 96.3182 84.1058 96.5754ZM134.394 83.5227C134.068 83.9337 133.634 85.3581 133.94 85.7745L135.939 84.8457C135.508 84.2939 135.648 83.9341 135.772 83.6167C135.889 83.3186 135.999 83.0371 135.607 82.6515C135.305 82.9346 135.317 83.4207 135.329 83.8909C135.341 84.3483 135.352 84.7804 135.07 84.9825C134.902 85.1036 134.821 85.127 134.709 85.1595C134.652 85.1761 134.588 85.1947 134.5 85.2291C134.095 84.8299 134.228 84.6089 134.37 84.375C134.503 84.1539 134.641 83.9253 134.394 83.5227ZM136.86 82.4013C136.687 82.639 136.72 82.9061 136.755 83.1889C136.813 83.6651 136.879 84.2048 136.074 84.8358L137.182 84.4407C137.491 83.5372 137.386 82.8699 136.86 82.4013ZM132.281 83.32C132.217 83.32 132.149 83.3498 132.048 83.4228L131.81 83.5983L132.209 83.9943L132.643 83.4894C132.596 83.4637 132.556 83.4397 132.519 83.4184C132.419 83.3591 132.353 83.32 132.281 83.32ZM120.8 78.1956C120.472 79.156 120.445 81.5652 121.864 82.782C122.619 83.4283 123.801 83.7426 125.478 83.7426C127.149 83.7426 128.979 83.4205 130.315 83.1853C130.692 83.119 131.044 83.0569 131.34 83.0115C132.826 82.7827 134.397 82.316 135.916 81.8645C137.474 81.4017 139.085 80.9232 140.558 80.721C140.579 80.6143 140.573 80.4889 140.566 80.3676C140.555 80.1378 140.543 79.921 140.697 79.8111L140.791 79.7445C140.88 79.6804 140.963 79.6493 141.044 79.6493C141.195 79.6493 141.319 79.7557 141.462 79.879L141.483 79.8966C141.666 80.0532 141.711 80.1227 141.773 80.219C141.806 80.2686 141.842 80.3249 141.905 80.4042C142.483 79.9889 143.294 79.7431 144.078 79.5054C144.758 79.2993 145.4 79.1046 145.833 78.8155C146.32 78.491 146.472 78.0941 146.311 77.5665L143.534 77.7897L143.488 77.6466L143.768 77.4459C143.919 77.3376 144.858 77.2476 145.614 77.1753C146.124 77.1264 146.527 77.0877 146.571 77.0562C146.572 77.0541 146.575 77.0101 146.611 76.5095C146.669 75.7077 146.777 74.2153 146.804 73.998C146.899 73.2357 146.872 71.5351 146.382 70.8687C146.217 71.0963 146.248 71.2766 146.275 71.4357C146.301 71.5886 146.324 71.7206 146.15 71.8452L145.869 72.0468C145.824 72.0216 145.784 71.9982 145.749 71.9772C145.651 71.9186 145.586 71.8799 145.515 71.8799C145.451 71.8799 145.382 71.9107 145.282 71.9829L145.188 72.0495C145.038 72.1572 145.045 72.275 145.053 72.4113C145.063 72.5839 145.074 72.7794 144.76 73.0053C144.623 73.1036 144.58 73.1056 144.486 73.1099C144.455 73.1112 144.421 73.1127 144.376 73.1178L144.096 72.3852L144.037 72.4221C143.724 72.6194 143.294 72.8896 142.94 72.8897C142.805 72.8897 142.69 72.8499 142.599 72.7713L142.29 72.5058L141.58 73.5111L140.954 72.9792L140.581 73.2465C140.401 73.3758 140.233 73.4335 140.039 73.4335C139.916 73.4336 139.79 73.411 139.657 73.3871C139.611 73.3789 139.564 73.3705 139.515 73.3626L139.225 72.7803C138.256 72.9478 137.222 73.3438 136.223 73.7267C134.837 74.2577 133.404 74.8066 132.043 74.8067C131.649 74.8067 131.27 74.7599 130.918 74.6676C131.725 74.0873 133.366 73.8147 134.953 73.551C136.519 73.2906 138.139 73.0214 138.972 72.4563L138.559 72.1035C138.776 72.0928 138.998 72.0923 139.234 72.0918C140.093 72.09 141.066 72.0879 141.839 71.5329C142.132 71.3239 142.385 70.9758 142.474 70.7544C142.587 70.7835 142.686 70.7965 142.774 70.808C142.958 70.8322 143.103 70.8514 143.269 70.9938L143.578 71.2584L146.472 69.1821C146.621 69.293 146.771 69.4403 146.917 69.5828C147.148 69.8092 147.367 70.0231 147.517 70.0231C147.546 70.0231 147.573 70.0148 147.595 69.9984C147.733 69.8999 147.774 69.7464 147.815 69.5979C147.855 69.4494 147.896 69.2959 148.034 69.1974C148.047 69.1874 148.555 69.1338 149.093 69.077C149.636 69.0198 150.194 68.9609 150.357 68.9355C151.095 68.8214 151.776 68.659 152.567 68.409C152.836 68.3238 154.049 68.0202 155.119 67.7524C156.112 67.5041 157.049 67.2696 157.079 67.248L157.359 67.0473C157.186 66.8117 157.135 66.5293 157.081 66.2303C156.992 65.7362 156.891 65.1761 156.233 64.6128C155.48 63.9684 154.394 63.6552 152.911 63.6552C150.483 63.6552 147.459 64.5237 145.029 65.2215C143.741 65.5915 142.629 65.911 141.791 66.0555C142.182 66.4032 142.219 66.6307 142.249 66.8135C142.272 66.9514 142.291 67.0705 142.448 67.2048C142.483 67.2349 142.54 67.2496 142.621 67.2496C142.909 67.2496 143.477 67.0568 144.196 66.8127C144.491 66.7127 144.821 66.6005 145.166 66.4902C146.186 66.1639 147.707 65.7302 149.134 65.7302C150.384 65.7302 151.405 66.0619 152.169 66.7161L152.147 66.7162C151.866 66.7162 151.477 66.6547 151.065 66.5896L150.982 66.5766C150.515 66.5034 150.062 66.4377 149.661 66.4377C149.646 66.4377 149.632 66.4378 149.617 66.438C148.702 66.4516 148.025 66.5339 147.097 66.681C145.395 66.952 143.957 67.2575 142.236 68.4927C142.213 68.4937 142.19 68.4941 142.166 68.4941C142.035 68.4941 141.882 68.48 141.746 68.4675C141.609 68.4551 141.454 68.4412 141.308 68.4412C141.064 68.4412 140.895 68.481 140.777 68.5665C140.614 68.6833 140.577 68.744 140.537 68.8083C140.495 68.8781 140.446 68.9572 140.227 69.1227L139.239 68.8311L138.905 69.4503L138.186 69.1155L138.315 69.2217L136.084 71.5797C135.423 72.126 133.514 72.7975 132.623 72.7975C132.518 72.7975 132.43 72.7881 132.359 72.7695C131.871 72.6404 131.523 72.3235 131.27 72.0921C131.083 71.9221 130.936 71.7878 130.807 71.7878C130.778 71.7878 130.751 71.7942 130.725 71.8074C130.495 71.9223 130.326 72.0667 130.146 72.2197C129.886 72.441 129.591 72.6917 129.052 72.8928C128.174 73.2204 127.167 73.401 126.193 73.5757C124.657 73.8511 123.07 74.1357 121.869 74.9979L121.495 75.2652C121.279 75.4207 121.399 75.6707 121.539 75.9601C121.645 76.1786 121.765 76.4261 121.766 76.6818C121.767 76.7853 121.762 76.8826 121.757 76.9768C121.737 77.3465 121.72 77.6653 122.062 78.102C122.266 77.8432 122.409 77.5973 122.547 77.3595C122.844 76.8487 123.124 76.3667 123.964 75.7638L124.711 75.2274C125.423 74.7179 126.235 74.4229 127 74.3967C126.844 74.5082 126.69 74.6176 126.538 74.7256C125.242 75.6467 124.123 76.4422 123.508 77.4864C122.679 78.8906 123.1 79.6151 123.438 80.1973C123.6 80.4754 123.739 80.7155 123.704 80.9766C123.537 80.8852 123.388 80.8259 123.244 80.7685C122.957 80.6544 122.686 80.5467 122.29 80.208C121.905 79.8775 121.567 79.3495 121.268 78.8837C121.104 78.6282 120.949 78.387 120.8 78.1956ZM139.449 81.6804L139.667 83.6307C140.152 83.2644 140.132 83.1436 139.98 82.7397C139.938 82.6302 139.913 82.5351 139.888 82.443C139.823 82.2023 139.767 81.9944 139.449 81.6804ZM147.631 78.4035C147.406 78.5998 147.394 78.741 147.382 78.8654C147.372 78.982 147.363 79.0827 147.193 79.2045C147.188 79.208 147.088 79.2087 146.911 79.2097C146.588 79.2117 146.1 79.2145 145.928 79.2432C145.492 79.3158 145.091 79.4261 144.585 79.6122C144.28 79.7243 142.024 80.6427 141.924 80.7147C141.635 80.9223 141.95 82.5319 142.059 82.8873C142.685 82.64 143.532 82.4003 144.428 82.1465C145.226 81.9209 146.049 81.688 146.748 81.4392L146.885 81.3903C148.401 80.8512 149.968 80.2938 151.391 79.2738L152.231 78.6708C153.101 78.0468 153.566 77.3471 153.976 76.7297C154.27 76.2864 154.525 75.9036 154.871 75.6414L153.799 75.6081L154.458 75.2895C154.404 75.2772 154.339 75.2702 154.26 75.2702C153.182 75.2702 150.452 76.5465 149.539 77.2596L151.993 76.41C151.569 76.7137 150.941 76.943 150.333 77.1647C149.786 77.3642 149.269 77.5526 148.957 77.7771C148.692 77.9672 148.719 78.256 148.749 78.5902C148.792 79.0532 148.84 79.5778 148.12 79.9992C147.677 79.6043 147.68 79.2782 147.683 78.933C147.685 78.7633 147.687 78.5878 147.631 78.4035ZM147.997 70.1964L147.149 70.6428C147.959 71.4415 147.814 72.8491 147.675 74.2103C147.568 75.2469 147.468 76.226 147.825 76.806C147.927 76.6659 148.042 75.0383 148.094 73.5457C148.145 72.0596 148.147 70.3992 147.997 70.1964ZM153.566 69.2892L153.567 69.2905L154.429 70.1217C155.062 72.2011 152.46 74.0227 149.943 75.7843C149.62 76.0103 149.289 76.242 148.973 76.4685C149.813 76.4388 153.546 74.8087 154.484 74.1357L155.137 73.6668C155.703 73.2614 156.291 72.1044 156.325 71.3309C156.338 71.0316 156.27 70.8158 156.123 70.6896C155.976 70.5639 155.742 70.5128 155.535 70.4676C155.33 70.4226 155.152 70.3838 155.132 70.2824C155.108 70.1631 155.303 69.9678 155.763 69.6492C156.445 69.1767 156.557 68.9911 156.726 68.7102C156.802 68.5843 156.889 68.4415 157.044 68.2461L156.764 68.031L149.049 70.0065L148.803 75.2931L149.035 75.4965L150.988 74.3742C152.089 73.7667 152.817 72.5397 153.049 71.9757C153.391 71.1364 153.417 70.7553 153.45 70.2728C153.468 70.0092 153.488 69.7106 153.566 69.291L153.566 69.2892ZM132.858 68.2479C132.034 68.8082 130.374 69.1252 128.617 69.4608C126.492 69.8666 124.085 70.3265 122.712 71.3115C122.061 71.7789 121.498 72.6832 121.375 73.4617C121.312 73.8572 121.369 74.1892 121.54 74.4219C121.902 74.2787 122.248 74.1716 122.583 74.0679C123.314 73.8416 124.004 73.6278 124.772 73.0764L126.078 72.1386C126.849 71.5869 127.489 70.7618 128.003 70.0988C128.096 69.9788 128.185 69.8639 128.271 69.7554C128.735 69.9158 129.109 69.9906 129.453 69.9906C129.726 69.9906 129.955 69.9461 130.221 69.8946C130.489 69.8427 130.793 69.7838 131.197 69.7644L132.141 69.2496C132.544 69.0499 132.926 68.5163 132.858 68.2479ZM161.07 69.0032C160.066 69.0032 159.059 69.4563 158.085 69.8946C157.752 70.0442 157.409 70.1984 157.075 70.3305C157.054 70.4412 157.011 70.6125 156.962 70.8107C156.741 71.704 156.37 73.199 156.773 73.5957L158.389 72.6318L158.542 72.7497L161.331 71.3313L161.985 70.8633C162.375 70.5834 162.54 70.3234 162.715 70.048C162.795 69.9231 162.877 69.7939 162.983 69.66C162.391 69.2185 161.765 69.0032 161.07 69.0032ZM161.428 68.2821C162.469 68.2821 162.75 68.5346 163.501 69.2092C163.662 69.3534 163.843 69.5159 164.057 69.6996C163.948 69.8503 163.889 70.0164 163.827 70.1923C163.715 70.5107 163.599 70.8397 163.173 71.1459L162.849 71.4672L159.306 73.2699C159.365 73.2728 159.429 73.2752 159.502 73.2752C160.718 73.2752 161.771 72.6374 162.642 72.0135C163.329 71.5194 164.204 70.7113 164.467 69.6672C164.591 69.1783 164.838 67.4298 164.483 67.1247C164.317 66.9821 163.861 66.9067 163.165 66.9067C161.545 66.9067 159.007 67.3235 158.286 67.8411C157.722 68.2454 157.292 68.9515 157.606 69.4638C158.32 68.9522 159.764 68.3624 160.85 68.301C161.073 68.2883 161.262 68.2821 161.428 68.2821ZM134.148 68.6187L132.917 69.3252C133.056 69.4028 133.258 69.4448 133.503 69.4448C134.036 69.4448 134.632 69.2495 134.705 69.0505C134.724 68.9989 134.708 68.9499 134.655 68.9049C134.532 68.7995 134.493 68.7837 134.423 68.7552C134.369 68.7332 134.295 68.7031 134.148 68.6187ZM8.08732 86.2182L8.30421 44.5842L11.8844 44.0082C14.3636 43.6102 16.7522 43.4084 18.984 43.4084C23.406 43.4084 27.3974 44.2006 30.8474 45.7632C33.445 46.9388 35.4178 48.4159 36.7107 50.1533C38.0035 51.8905 38.6531 53.9369 38.6414 56.2356C38.6316 58.0789 38.2043 59.8971 37.3714 61.6396C36.5383 63.3826 35.276 65.099 33.6194 66.7413C30.3055 70.0257 25.7791 72.8199 20.1662 75.0465L37.8143 81.441L30.0599 82.6866L13.0058 76.4469L12.959 85.4352L8.0885 86.218L8.08732 86.2182ZM17.2946 46.5215C15.9848 46.5215 14.5939 46.5931 13.1606 46.7343L13.0184 74.0124C18.9569 72.644 23.8821 70.4468 27.656 67.4811C31.6925 64.3494 33.7491 60.8926 33.7688 57.2067C33.7876 53.4376 31.8473 50.5698 28.0016 48.6828C25.0735 47.2487 21.4707 46.5216 17.2946 46.5215ZM43.1216 77.2947V77.2935L43.1963 62.7093L39.3065 56.6838L40.985 56.4138L43.8884 61.0065L46.7882 55.4814L48.4658 55.2105L44.5616 62.4888L44.4869 77.076L43.1228 77.2945L43.1216 77.2947ZM51.3584 75.9708V75.9696L51.4691 54.729L52.7201 54.5274C52.9313 54.4935 53.137 54.4763 53.3314 54.4763C53.9898 54.4763 54.5623 54.6737 55.0331 55.0629C55.6441 55.5656 55.9511 56.3459 55.9457 57.3822C55.9403 58.2287 55.6106 59.0738 54.9656 59.8941C56.4737 60.1378 57.6893 60.8799 58.5782 62.0982C59.4674 63.3169 59.9138 64.8458 59.9048 66.6423C59.8932 68.8403 59.1846 70.8491 57.7988 72.6129C56.4139 74.3764 54.7158 75.4311 52.7516 75.7476L51.3596 75.9706L51.3584 75.9708ZM53.8131 61.2366C53.4984 61.2366 53.1667 61.2653 52.8272 61.3197L52.7597 74.1546C54.3428 73.9007 55.7103 73.0659 56.8232 71.6724C57.934 70.2803 58.5018 68.6633 58.5107 66.8664C58.5206 64.9431 57.9834 63.4558 56.9141 62.4456C56.065 61.6441 55.0218 61.2377 53.8135 61.2376L53.8131 61.2366ZM53.1468 55.9143C53.0536 55.9143 52.9555 55.9225 52.8551 55.9386L52.8353 59.7915C53.3259 59.7117 53.7388 59.4743 54.0611 59.085C54.3839 58.695 54.5489 58.1977 54.5516 57.6072C54.5552 57.0365 54.395 56.5911 54.0755 56.2833C53.8221 56.0384 53.5096 55.9143 53.1468 55.9143ZM62.7056 74.3382V74.337L62.8172 53.0955L64.5578 52.8156L64.4471 74.0583L62.7068 74.338L62.7056 74.3382ZM77.8958 71.8965V71.8953L78.0461 43.0578L80.1701 42.7167C80.9889 42.5849 81.7898 42.518 82.5507 42.518C85.0613 42.518 87.2902 43.2459 89.1755 44.6814C91.6288 46.5516 92.8645 49.1148 92.8484 52.2999C92.8314 55.5131 91.632 58.4094 89.2835 60.9084C86.935 63.4065 83.9088 65.1427 80.2889 66.069L80.2601 71.5176L77.897 71.8963L77.8958 71.8965ZM81.4475 44.6745C81.1083 44.6745 80.756 44.6872 80.4005 44.7102L80.2997 63.9072C83.1496 63.4486 85.5903 62.1121 87.5528 59.9337C89.5161 57.7545 90.5184 55.3111 90.5318 52.6716C90.5461 50.0325 89.5999 47.9752 87.7193 46.557C86.0629 45.3086 83.9531 44.6756 81.4485 44.6755L81.4475 44.6745ZM120.014 68.7078L119.705 68.4423C119.513 68.2774 119.346 68.2551 119.209 68.2551C119.139 68.2551 119.068 68.2618 118.994 68.2689L118.988 68.2695C118.917 68.2759 118.836 68.2833 118.751 68.2833C118.528 68.2833 118.335 68.2318 118.125 68.1165L118.302 67.8285C118.521 67.7907 118.701 67.7376 118.859 67.6908C119.059 67.6317 119.231 67.5808 119.413 67.5808C119.759 67.5808 120.122 67.7712 120.667 68.238L120.014 68.7078ZM101.087 68.3863C100.202 68.3864 99.4844 68.1345 98.9531 67.6377C98.2499 66.9802 97.8965 66.0251 97.9028 64.7991L97.9928 47.4426L99.7343 47.1627L99.6443 64.4553C99.6398 65.2361 99.8097 65.8566 100.149 66.2994C100.409 66.6369 100.823 66.8081 101.379 66.8081C101.551 66.8081 101.74 66.7917 101.941 66.7593C102.79 66.6232 103.401 66.2844 103.757 65.7522C104.114 65.2205 104.296 64.5432 104.301 63.7389L104.391 46.4139L106.097 46.1394L106.006 63.5598C105.999 64.7446 105.653 65.7908 104.978 66.6693C104.303 67.5477 103.303 68.0991 102.004 68.3082C101.682 68.36 101.373 68.3863 101.087 68.3863ZM110.129 66.7161L110.13 66.7146L115.883 46.1268L110.659 46.9656L110.667 45.405L118.166 44.1999L112.412 64.791L118.313 63.8424L118.304 65.4021L110.131 66.7158L110.129 66.7161ZM131.401 63.4047C129.046 63.4047 126.942 62.7486 125.146 61.4547C122.787 59.7547 121.598 57.3816 121.613 54.4014C121.629 51.3169 122.851 48.4869 125.244 45.99C127.637 43.4938 130.609 41.9455 134.076 41.3883C134.838 41.2658 135.585 41.2036 136.294 41.2036C138.652 41.2036 140.741 41.8913 142.501 43.2477C144.789 45.0137 145.941 47.4195 145.925 50.3982C145.91 53.3773 144.7 56.1522 142.33 58.6458C139.961 61.1376 137.062 62.6741 133.713 63.2124C132.918 63.34 132.14 63.4047 131.401 63.4047ZM135.747 42.8479C135.045 42.8479 134.301 42.9113 133.534 43.0344C130.727 43.486 128.301 44.8023 126.322 46.9467C124.343 49.0906 123.333 51.4637 123.321 54C123.307 56.5993 124.312 58.6644 126.307 60.138C127.823 61.2582 129.626 61.8262 131.666 61.8263C132.31 61.8263 132.989 61.7697 133.685 61.6581C136.539 61.1994 139.025 59.8949 141.074 57.7809C143.124 55.6671 144.17 53.3098 144.183 50.7744C144.198 48.049 143.182 45.9318 141.162 44.4816C139.652 43.3983 137.83 42.849 135.748 42.8489L135.747 42.8479ZM150.049 60.3009V60.2997L150.162 38.7072L156.896 41.2533L156.913 37.9719L158.655 37.6929L158.544 58.9347L156.802 59.2146L156.886 43.0362L151.889 41.1669L151.79 60.021L150.05 60.3007L150.049 60.3009ZM179.081 50.5292C176.904 46.2497 173.502 41.2911 170.768 37.3067C168.288 33.692 166.329 30.8376 166.605 30.348C167.462 30.0507 168.289 29.9183 169.288 29.9183C169.5 29.9183 169.726 29.9242 169.978 29.9362L169.972 29.9288C167.079 25.0413 164.794 21.1809 165.853 18.9441C166.339 17.9165 167.522 17.2723 169.47 16.9749C169.463 16.7237 170.167 16.29 170.505 16.0816C170.574 16.0392 170.628 16.0058 170.661 15.9831C170.625 15.7977 170.596 15.6298 170.592 15.4629C170.204 15.174 169.833 14.9453 169.475 14.7241C168.237 13.9605 167.344 13.409 167.292 11.3589C165.934 10.5303 165.164 9.97023 165.118 8.10448C164.173 7.77236 163.75 7.41423 163.159 6.73739C163.183 6.58593 163.18 6.45534 163.176 6.31709C161.865 5.9053 160.674 5.42441 160.519 4.09139C159.524 3.77916 158.691 3.44968 157.856 2.8593C156.818 3.21566 155.852 3.54595 154.984 3.84111C156.666 2.25852 158.072 0.865 158.827 0.116341L158.944 0C159.279 2.0463 160.054 2.26314 161.929 2.78702L162.013 2.81068C162.192 4.39345 163.539 4.72577 164.842 5.04716C164.633 6.17343 165.356 6.41457 166.194 6.69375C166.33 6.73911 166.471 6.786 166.612 6.83818C166.753 7.60968 166.816 8.17711 166.832 8.7975C167.046 8.94898 167.252 9.10889 167.451 9.26355C167.872 9.58986 168.307 9.92707 168.817 10.188C168.86 11.8328 169.74 12.4218 170.591 12.9915C171.342 13.4937 172.05 13.9681 172.223 15.1074C172.974 15.4282 173.683 15.732 176.275 28.4355C175.813 28.5485 175.367 28.6161 174.936 28.6815C173.736 28.8635 172.7 29.0205 171.948 30.0672C171.631 30.0488 171.328 30.0265 171.036 30.005C170.668 29.9779 170.323 29.9525 169.978 29.9362L170.11 30.1581C173.416 35.7387 177.53 42.6839 179.083 50.5285L179.081 50.5292ZM81.8155 41.9985C75.5819 41.9986 65.3231 39.4839 63.4363 35.5433C62.8749 34.3706 63.092 33.1525 64.0817 31.923C64.1728 31.9158 64.2711 31.9123 64.3748 31.9123C65.1153 31.9123 66.1777 32.0896 67.4079 32.295L67.423 32.2975C67.7105 32.3455 68.0087 32.3952 68.3162 32.445C69.9467 32.7084 71.8817 32.9776 73.8713 32.9776C75.8186 32.9776 77.5139 32.727 79.054 32.2113C77.6537 32.1069 76.104 31.7344 75.0786 31.488C74.612 31.3759 74.2435 31.2873 74.051 31.2633C73.9087 31.4075 73.8271 31.5427 73.7495 31.68C67.2876 31.045 64.0579 29.7805 64.149 27.922C64.2261 26.3496 66.7721 24.3576 71.512 22.1614C75.9113 20.123 81.9926 17.9878 89.0984 15.9867C96.1796 13.9926 103.715 12.2896 110.89 11.0619C118.579 9.74602 125.487 9.0505 130.867 9.0505C133.337 9.0505 135.509 9.19598 137.321 9.48293C132.163 10.9335 129.413 11.3936 125.933 11.976C120.482 12.8882 113.698 14.0234 94.0409 19.4355C92.4879 19.8627 90.175 20.2392 87.4968 20.6751C79.6125 21.9583 68.8148 23.7156 67.5476 28.5561C68.2161 29.0954 71.24 30.2324 72.5088 30.2324C72.612 30.2324 72.703 30.225 72.7793 30.2103C72.8976 30.042 73.2226 29.9527 73.7187 29.9527C75.2427 29.9527 78.0138 30.7382 80.1645 31.7797C80.9368 31.4353 81.6681 31.009 82.3373 30.5127C82.3621 31.3843 81.8669 31.9317 80.8669 32.1406C82.0827 32.8045 83.5783 33.8483 83.8005 35.0398C83.8963 35.5533 83.7437 36.0514 83.3471 36.5202C83.2251 36.5156 83.088 36.5131 82.9389 36.5131C81.997 36.5131 80.7684 36.6081 79.3457 36.7182L79.298 36.7218L78.7724 36.7623C77.1936 36.8829 75.3637 37.0115 73.6275 37.0115C71.2642 37.0115 69.5011 36.7731 68.2374 36.2824C66.6816 35.6784 65.8754 34.6649 65.8412 33.2703L65.8093 33.2715L65.7728 33.2718C65.6456 33.2718 65.516 33.2568 65.3906 33.2422C65.3417 33.2366 65.2936 33.231 65.2454 33.2262C64.9076 34.0197 65.0035 34.8272 65.5313 35.6255C66.4584 37.0278 68.7016 38.3699 71.8476 39.4046C74.7174 40.3485 78.0189 40.9121 80.679 40.9121C83.5375 40.9121 85.3656 40.278 85.8266 39.1266C86.382 38.2895 87.1132 37.9018 87.8203 37.5269C88.9298 36.9386 89.8879 36.4306 89.7992 34.3449C90.4608 34.4745 91.1252 34.579 91.9196 34.6959C91.0082 36.5327 89.9876 37.4357 88.9071 38.3917C88.1815 39.0336 87.4316 39.6971 86.696 40.6755C86.2965 41.5286 84.5632 41.9985 81.8155 41.9985ZM83.2173 29.3679C82.8247 29.3679 82.5029 29.2435 82.2609 28.9982C81.9154 28.6479 81.7458 28.064 81.7568 27.2628C81.7711 26.1825 82.788 25.3037 84.0237 25.3037C84.0435 25.3037 84.0633 25.3039 84.0833 25.3044C85.6328 25.3396 86.481 25.8055 86.4718 26.6162C86.4584 27.7992 84.603 29.3679 83.2173 29.3679ZM143.822 12.0114C143.56 12.0113 143.351 11.938 143.203 11.7936C142.077 10.6999 140.098 9.92252 137.321 9.48293C141.541 8.29627 147.154 6.50416 154.984 3.84111C151.022 7.56925 145.868 12.0114 143.822 12.0114Z" fill="#FEFEFE"/>
</g>
</g>
</g>
<defs>
<filter id="filter0_b_3_41" x="-10" y="-10" width="205.999" height="158" filterUnits="userSpaceOnUse" color-interpolation-filters="sRGB">
<feFlood flood-opacity="0" result="BackgroundImageFix"/>
<feGaussianBlur in="BackgroundImageFix" stdDeviation="5"/>
<feComposite in2="SourceAlpha" operator="in" result="effect1_backgroundBlur_3_41"/>
<feBlend mode="normal" in="SourceGraphic" in2="effect1_backgroundBlur_3_41" result="shape"/>
</filter>
</defs>
</svg>
